<svg width="17" height="17" viewBox="0 0 17 17" fill="none" xmlns="http://www.w3.org/2000/svg">
<g id="Icon">
<g id="Group 2">
<path id="Vector" d="M10.3796 8.3917C10.2992 8.3917 10.2246 8.36959 10.1583 8.33404V8.33499C10.1583 8.46147 10.1091 8.58025 10.0199 8.66921C9.93072 8.75841 9.81203 8.80757 9.68569 8.80757C9.60412 8.80757 9.52853 8.78492 9.46151 8.74842C9.45475 8.86413 9.4085 8.97228 9.32598 9.05488C9.23679 9.14408 9.1181 9.19324 8.99168 9.19324C8.74052 9.19324 8.53655 8.99581 8.52185 8.74834C8.44414 8.79034 8.35628 8.81237 8.26566 8.80655C8.01858 8.79034 7.82509 8.57687 7.82509 8.32043V6.19482L7.58305 6.61414C7.49086 6.77453 7.31829 6.87411 7.13249 6.87411C7.04196 6.87411 6.95252 6.85035 6.87332 6.80497C6.77468 6.74778 6.70412 6.65599 6.67478 6.54617C6.64529 6.43629 6.66055 6.32137 6.71757 6.22288C6.71765 6.22288 7.5095 4.85162 7.55781 4.76739C7.56355 4.75473 7.57991 4.718 7.59384 4.68669C7.60713 4.6568 7.61854 4.62612 7.62947 4.59529C7.86827 3.92112 8.45956 3.50234 9.17267 3.50234C10.0987 3.50234 10.8521 4.31928 10.8521 5.32344L10.8522 7.91904C10.8522 8.04537 10.8031 8.16406 10.714 8.25335C10.6248 8.34255 10.5061 8.39171 10.3796 8.39171L10.3796 8.3917ZM9.17268 3.75345C8.55992 3.75345 8.07153 4.09956 7.86616 4.67927C7.85302 4.71608 7.83934 4.75289 7.82337 4.78876C7.77704 4.89267 7.77704 4.89267 7.76398 4.90761L7.76225 4.90612C7.6976 5.02812 7.50551 5.36076 6.935 6.34856C6.91156 6.38907 6.90535 6.43611 6.91731 6.4811C6.92942 6.52609 6.95845 6.564 6.99864 6.58721C7.12339 6.65886 7.29424 6.61261 7.36535 6.48873L7.84194 5.66359C7.87041 5.61443 7.92799 5.59028 7.98321 5.60523C8.03811 5.61994 8.07626 5.66973 8.07626 5.72652V8.32051C8.07626 8.4429 8.1686 8.54853 8.28212 8.556C8.34756 8.55946 8.4086 8.53752 8.45446 8.49174C8.49614 8.45005 8.51911 8.39452 8.51911 8.33513V6.63863C8.51911 6.56925 8.57535 6.51301 8.64473 6.51301C8.71411 6.51301 8.77035 6.56917 8.77035 6.63863L8.77027 8.72074C8.77027 8.84282 8.86961 8.94217 8.99169 8.94217C9.051 8.94217 9.10669 8.9192 9.14846 8.87751C9.19015 8.83574 9.21311 8.78005 9.21311 8.72074V6.63863C9.21311 6.56925 9.26928 6.51301 9.33873 6.51301C9.40811 6.51301 9.46435 6.56917 9.46435 6.63863L9.46427 8.31562V8.33512C9.46427 8.45712 9.56361 8.55646 9.68577 8.55646C9.745 8.55646 9.80053 8.53342 9.84254 8.49157C9.88423 8.44996 9.90719 8.39443 9.90719 8.33504V6.63854C9.90719 6.56916 9.96336 6.51292 10.0328 6.51292C10.1022 6.51292 10.1584 6.56908 10.1584 6.63854L10.1583 7.9191C10.1583 8.04126 10.2576 8.1406 10.3796 8.1406C10.439 8.1406 10.4945 8.11756 10.5362 8.07595C10.5781 8.0341 10.601 7.97841 10.601 7.9191L10.601 5.3235C10.601 4.45788 9.96029 3.75348 9.17267 3.75348L9.17268 3.75345Z" fill="#103E13"/>
<path id="Vector_2" d="M5.44423 10.1957L7.26705 9.10216C7.48682 8.97017 7.7696 9.02626 7.91055 9.2299C7.962 9.30408 7.98827 9.39052 7.99236 9.47855C8.06032 9.44307 8.13426 9.4238 8.20953 9.4238C8.24807 9.4238 8.28677 9.4286 8.325 9.43812C8.44747 9.46871 8.55067 9.54525 8.61557 9.65348C8.68054 9.76187 8.6995 9.88889 8.6689 10.0112C8.64066 10.1244 8.57184 10.2197 8.47611 10.285C8.54305 10.3245 8.60078 10.3784 8.64184 10.447C8.70682 10.5554 8.72577 10.6824 8.69525 10.8048C8.66465 10.9271 8.58812 11.0303 8.47973 11.0954L8.4791 11.0958C8.54486 11.1352 8.60157 11.1885 8.64216 11.2561C8.70721 11.3645 8.72617 11.4915 8.69557 11.614C8.66489 11.7364 8.58836 11.8396 8.48013 11.9045L6.25444 13.2398C5.83904 13.4889 5.35883 13.5749 4.90245 13.4817C4.44199 13.3876 4.06065 13.1229 3.82878 12.7364C3.46183 12.1248 3.51682 11.4022 3.97201 10.8508C3.99286 10.8256 4.01339 10.8 4.03203 10.7734C4.05177 10.7453 4.07482 10.7122 4.08269 10.7009C4.1298 10.6168 4.89862 9.23158 4.89854 9.23174C4.97617 9.09165 5.12169 9.01235 5.27177 9.01243C5.34177 9.01243 5.4128 9.02966 5.47833 9.066C5.55746 9.1102 5.62392 9.17462 5.67041 9.25226C5.76598 9.41154 5.76936 9.61087 5.67938 9.77218L5.44423 10.1957ZM5.45517 9.38139C5.43078 9.34073 5.39728 9.30832 5.35629 9.28535C5.27158 9.23847 5.16492 9.26899 5.11828 9.35339C4.56815 10.3445 4.38062 10.6822 4.30825 10.8024L4.3099 10.8028C4.30384 10.823 4.30384 10.823 4.23761 10.9176C4.21512 10.9496 4.19066 10.9804 4.16572 11.0106C3.77431 11.4849 3.72886 12.0817 4.04404 12.6072C4.23927 12.9327 4.56193 13.1558 4.95262 13.2356C5.34755 13.3159 5.76381 13.2412 6.1251 13.0244L8.35099 11.6891C8.40181 11.6586 8.43768 11.6103 8.45199 11.5529C8.46631 11.4957 8.45742 11.4361 8.4269 11.3853C8.36413 11.2807 8.22781 11.2463 8.1232 11.3093L7.02514 11.9681C6.96567 12.0038 6.88843 11.9846 6.8528 11.9251C6.81709 11.8656 6.83636 11.7884 6.89582 11.7527L7.99397 11.094L8.3506 10.88C8.40142 10.8495 8.43736 10.8011 8.45168 10.7439C8.46599 10.6866 8.45711 10.627 8.42659 10.5762C8.36374 10.4715 8.22742 10.4375 8.12289 10.5002L6.66811 11.373C6.60848 11.4088 6.53147 11.3894 6.49576 11.3299C6.46005 11.2705 6.4794 11.1933 6.53879 11.1576L8.32425 10.0865C8.37507 10.056 8.41094 10.0077 8.42525 9.95036C8.43957 9.89309 8.43068 9.83355 8.40024 9.78274C8.3698 9.732 8.32142 9.69613 8.26408 9.68182C8.20642 9.6675 8.14712 9.67639 8.09646 9.70675L7.76594 9.90505C7.76586 9.90505 7.76586 9.90513 7.76578 9.90513H7.7657L6.311 10.7778C6.25138 10.8137 6.17429 10.7944 6.13866 10.7348C6.10295 10.6754 6.1223 10.5982 6.18169 10.5625L7.63647 9.68977C7.68728 9.65925 7.72323 9.61087 7.73754 9.55369C7.75328 9.49092 7.74132 9.42673 7.70404 9.37293C7.63938 9.27941 7.5011 9.25455 7.39625 9.31755L5.17197 10.6519C5.12328 10.681 5.06091 10.6739 5.02008 10.6345C4.97918 10.5951 4.96998 10.533 4.99751 10.4834L5.46002 9.65005C5.50643 9.56675 5.50462 9.46386 5.45514 9.38142L5.45517 9.38139Z" fill="#103E13"/>
<path id="Vector_3" d="M14.1545 12.7363C13.9227 13.1229 13.5414 13.3875 13.0809 13.4816C12.6244 13.5747 12.1444 13.4888 11.7289 13.2397L9.50301 11.9044C9.3947 11.8395 9.31808 11.7363 9.28741 11.6137C9.25697 11.4914 9.276 11.3643 9.34089 11.2561C9.3814 11.1885 9.43819 11.1351 9.50403 11.0957L9.5034 11.0953C9.39509 11.0304 9.31848 10.9272 9.28796 10.8048C9.25729 10.6824 9.27632 10.5553 9.34129 10.4469C9.38314 10.3773 9.44048 10.3228 9.50592 10.2842C9.4109 10.2189 9.34247 10.1239 9.31431 10.0113C9.28364 9.8888 9.30267 9.76176 9.36764 9.65352C9.43254 9.54521 9.53582 9.46868 9.65821 9.43808C9.69644 9.42849 9.73522 9.42377 9.77361 9.42377C9.84896 9.42384 9.9229 9.44296 9.99086 9.47851C9.99503 9.39049 10.0212 9.30405 10.0727 9.22987C10.2137 9.02639 10.4962 8.97007 10.7163 9.10213L12.5391 10.1955L12.3041 9.77229C12.214 9.61073 12.2173 9.4114 12.3129 9.25204C12.3594 9.17448 12.426 9.11006 12.5055 9.06546C12.5709 9.02928 12.6417 9.01214 12.7115 9.01214C12.8615 9.01221 13.0072 9.09134 13.0847 9.23144C13.355 9.71842 13.865 10.6368 13.9009 10.7009C13.9085 10.712 13.9316 10.7451 13.9513 10.7732C13.9701 10.7998 13.9904 10.8253 14.0114 10.8506C14.4665 11.4023 14.5214 12.1248 14.1545 12.7363L14.1545 12.7363ZM13.8176 11.0107C13.7926 10.9804 13.768 10.9495 13.7457 10.9177C13.6777 10.8212 13.676 10.8187 13.6709 10.7935C13.5915 10.662 13.3977 10.3131 12.8649 9.35329C12.8182 9.26905 12.712 9.2383 12.6274 9.28502C12.5858 9.3083 12.5524 9.34079 12.528 9.38145C12.4786 9.46381 12.4767 9.56669 12.5234 9.65024L12.9857 10.4833C13.0133 10.533 13.0041 10.595 12.9633 10.6345C12.9226 10.674 12.8603 10.681 12.8113 10.6519L10.5871 9.3175C10.4822 9.25465 10.344 9.27928 10.2792 9.37288C10.2419 9.42668 10.23 9.49087 10.2456 9.55356C10.2599 9.61082 10.2959 9.65912 10.3468 9.68964C10.3469 9.68971 10.347 9.68987 10.3471 9.68995L11.8015 10.5624C11.8609 10.5981 11.8802 10.6752 11.8445 10.7348C11.8088 10.7942 11.7318 10.8136 11.6722 10.7778L9.88669 9.70671C9.83603 9.67635 9.77641 9.66738 9.71914 9.68178C9.66172 9.69609 9.61343 9.73196 9.58299 9.78285C9.55247 9.83358 9.54366 9.89313 9.55782 9.95039C9.57213 10.0077 9.60808 10.056 9.65889 10.0865L10.0063 10.2949L11.4443 11.1577C11.5037 11.1934 11.523 11.2704 11.4873 11.33C11.4516 11.3894 11.3746 11.4087 11.315 11.373L9.86034 10.5003C9.75572 10.4374 9.61949 10.4715 9.55656 10.5763C9.52604 10.6271 9.51723 10.6866 9.53139 10.7439C9.54571 10.8012 9.58165 10.8495 9.63254 10.8801L9.98918 11.094L11.0872 11.7528C11.1466 11.7885 11.1659 11.8656 11.1302 11.9251C11.0945 11.9845 11.0175 12.004 10.9579 11.9681L9.85987 11.3094C9.80921 11.279 9.74982 11.27 9.69225 11.2844C9.63498 11.2988 9.58653 11.3346 9.55609 11.3854C9.52565 11.4362 9.51676 11.4958 9.53092 11.553C9.54523 11.6102 9.58118 11.6585 9.63207 11.6891L11.858 13.0244C12.2192 13.2411 12.6357 13.3162 13.0305 13.2356C13.4211 13.1559 13.7437 12.9327 13.9389 12.6072C14.2544 12.0816 14.2091 11.4848 13.8177 11.0107L13.8176 11.0107Z" fill="#103E13"/>
</g>
</g>
</svg>
