<svg width="15" height="10" viewBox="0 0 15 10" fill="none" xmlns="http://www.w3.org/2000/svg">
<g id="Logo" clip-path="url(#clip0_212_1125)">
<path id="Vector" fill-rule="evenodd" clip-rule="evenodd" d="M4.17761 1.4062L0.843689 4.7066C1.51053 5.36676 2.2723 5.92311 3.10284 6.35837C3.33241 6.9612 3.69225 7.52654 4.18235 8.01171C6.02627 9.83706 9.01581 9.83706 10.8597 8.01171C11.3498 7.52654 11.7096 6.9612 11.9392 6.35834C12.7697 5.92311 13.5315 5.36676 14.1984 4.7066L10.8671 1.40889C10.8647 1.40642 10.8622 1.40395 10.8597 1.40149C9.01581 -0.423869 6.02627 -0.423869 4.18235 1.40149C4.18078 1.40306 4.17919 1.40463 4.17761 1.4062ZM10.5407 6.95382C9.56912 7.27841 8.54923 7.44464 7.52102 7.44464C6.49281 7.44464 5.47295 7.27841 4.5014 6.95382C4.60667 7.09208 4.72288 7.22476 4.85009 7.35069C6.32521 8.81099 8.71683 8.81099 10.192 7.35069C10.3192 7.22476 10.4354 7.09208 10.5407 6.95382ZM4.91856 1.99641C5.16906 2.16024 5.43542 2.30043 5.71413 2.41473C6.28698 2.64962 6.90096 2.77052 7.52102 2.77052C8.14108 2.77052 8.75506 2.64962 9.32791 2.41473C9.60662 2.30043 9.87298 2.16023 10.1235 1.9964C8.66678 0.624258 6.37526 0.624262 4.91856 1.99641Z" fill="#3B4158"/>
</g>
<defs>
<clipPath id="clip0_212_1125">
<rect width="13.3547" height="9.34826" fill="white" transform="translate(0.843689 0.0324707)"/>
</clipPath>
</defs>
</svg>
