<svg width="17" height="17" viewBox="0 0 17 17" fill="none" xmlns="http://www.w3.org/2000/svg">
<g id="Icon">
<g id="Group 2">
<g id="Vector">
<mask id="path-1-inside-1_212_1413" fill="white">
<path d="M10.3412 7.92429C10.2608 7.92429 10.1861 7.90219 10.1198 7.86663V7.86758C10.1198 7.99406 10.0707 8.11284 9.98147 8.2018C9.89227 8.291 9.77358 8.34016 9.64724 8.34016C9.56567 8.34016 9.49008 8.31751 9.42306 8.28101C9.4163 8.39672 9.37005 8.50487 9.28753 8.58747C9.19833 8.67667 9.07964 8.72583 8.95323 8.72583C8.70206 8.72583 8.4981 8.5284 8.4834 8.28093C8.40569 8.32294 8.31782 8.34496 8.2272 8.33914C7.98013 8.32294 7.78664 8.10946 7.78664 7.85302V5.72741L7.5446 6.14674C7.45241 6.30712 7.27984 6.4067 7.09404 6.4067C7.00351 6.4067 6.91407 6.38295 6.83487 6.33756C6.73623 6.28038 6.66567 6.18858 6.63633 6.07877C6.60684 5.96888 6.62209 5.85396 6.67912 5.75547C6.6792 5.75547 7.47105 4.38422 7.51936 4.29999C7.5251 4.28732 7.54146 4.25059 7.55538 4.21928C7.56868 4.18939 7.58008 4.15872 7.59102 4.12788C7.82981 3.45371 8.4211 3.03493 9.13422 3.03493C10.0603 3.03493 10.8136 3.85187 10.8136 4.85604L10.8137 7.45163C10.8137 7.57796 10.7646 7.69666 10.6755 7.78594C10.5863 7.87514 10.4676 7.9243 10.3412 7.9243L10.3412 7.92429ZM9.13423 3.28605C8.52147 3.28605 8.03308 3.63215 7.82771 4.21186C7.81457 4.24867 7.80089 4.28549 7.78492 4.32136C7.73859 4.42526 7.73859 4.42526 7.72553 4.44021L7.7238 4.43871C7.65914 4.56071 7.46706 4.89335 6.89655 5.88115C6.87311 5.92166 6.8669 5.9687 6.87885 6.01369C6.89097 6.05868 6.91999 6.0966 6.96019 6.1198C7.08494 6.19146 7.25579 6.14521 7.32689 6.02132L7.80349 5.19619C7.83196 5.14702 7.88954 5.12288 7.94475 5.13782C7.99966 5.15253 8.03781 5.20232 8.03781 5.25911V7.8531C8.03781 7.97549 8.13015 8.08112 8.24366 8.08859C8.30911 8.09206 8.37014 8.07011 8.416 8.02433C8.45769 7.98264 8.48066 7.92711 8.48066 7.86772V6.17122C8.48066 6.10185 8.5369 6.0456 8.60628 6.0456C8.67565 6.0456 8.73189 6.10177 8.73189 6.17122L8.73182 8.25334C8.73182 8.37541 8.83116 8.47476 8.95324 8.47476C9.01255 8.47476 9.06824 8.45179 9.11 8.4101C9.15169 8.36833 9.17466 8.31265 9.17466 8.25334V6.17122C9.17466 6.10184 9.23082 6.0456 9.30028 6.0456C9.36965 6.0456 9.4259 6.10176 9.4259 6.17122L9.42582 7.84821V7.86772C9.42582 7.98972 9.52516 8.08906 9.64732 8.08906C9.70655 8.08906 9.76208 8.06601 9.80409 8.02416C9.84577 7.98255 9.86874 7.92702 9.86874 7.86763V6.17113C9.86874 6.10176 9.9249 6.04551 9.99436 6.04551C10.0637 6.04551 10.12 6.10168 10.12 6.17113L10.1198 7.45169C10.1198 7.57385 10.2192 7.67319 10.3412 7.67319C10.4005 7.67319 10.4561 7.65015 10.4978 7.60854C10.5396 7.56669 10.5625 7.511 10.5625 7.45169L10.5626 4.8561C10.5626 3.99047 9.92184 3.28607 9.13422 3.28607L9.13423 3.28605Z"/>
</mask>
<path d="M10.3412 7.92429C10.2608 7.92429 10.1861 7.90219 10.1198 7.86663V7.86758C10.1198 7.99406 10.0707 8.11284 9.98147 8.2018C9.89227 8.291 9.77358 8.34016 9.64724 8.34016C9.56567 8.34016 9.49008 8.31751 9.42306 8.28101C9.4163 8.39672 9.37005 8.50487 9.28753 8.58747C9.19833 8.67667 9.07964 8.72583 8.95323 8.72583C8.70206 8.72583 8.4981 8.5284 8.4834 8.28093C8.40569 8.32294 8.31782 8.34496 8.2272 8.33914C7.98013 8.32294 7.78664 8.10946 7.78664 7.85302V5.72741L7.5446 6.14674C7.45241 6.30712 7.27984 6.4067 7.09404 6.4067C7.00351 6.4067 6.91407 6.38295 6.83487 6.33756C6.73623 6.28038 6.66567 6.18858 6.63633 6.07877C6.60684 5.96888 6.62209 5.85396 6.67912 5.75547C6.6792 5.75547 7.47105 4.38422 7.51936 4.29999C7.5251 4.28732 7.54146 4.25059 7.55538 4.21928C7.56868 4.18939 7.58008 4.15872 7.59102 4.12788C7.82981 3.45371 8.4211 3.03493 9.13422 3.03493C10.0603 3.03493 10.8136 3.85187 10.8136 4.85604L10.8137 7.45163C10.8137 7.57796 10.7646 7.69666 10.6755 7.78594C10.5863 7.87514 10.4676 7.9243 10.3412 7.9243L10.3412 7.92429ZM9.13423 3.28605C8.52147 3.28605 8.03308 3.63215 7.82771 4.21186C7.81457 4.24867 7.80089 4.28549 7.78492 4.32136C7.73859 4.42526 7.73859 4.42526 7.72553 4.44021L7.7238 4.43871C7.65914 4.56071 7.46706 4.89335 6.89655 5.88115C6.87311 5.92166 6.8669 5.9687 6.87885 6.01369C6.89097 6.05868 6.91999 6.0966 6.96019 6.1198C7.08494 6.19146 7.25579 6.14521 7.32689 6.02132L7.80349 5.19619C7.83196 5.14702 7.88954 5.12288 7.94475 5.13782C7.99966 5.15253 8.03781 5.20232 8.03781 5.25911V7.8531C8.03781 7.97549 8.13015 8.08112 8.24366 8.08859C8.30911 8.09206 8.37014 8.07011 8.416 8.02433C8.45769 7.98264 8.48066 7.92711 8.48066 7.86772V6.17122C8.48066 6.10185 8.5369 6.0456 8.60628 6.0456C8.67565 6.0456 8.73189 6.10177 8.73189 6.17122L8.73182 8.25334C8.73182 8.37541 8.83116 8.47476 8.95324 8.47476C9.01255 8.47476 9.06824 8.45179 9.11 8.4101C9.15169 8.36833 9.17466 8.31265 9.17466 8.25334V6.17122C9.17466 6.10184 9.23082 6.0456 9.30028 6.0456C9.36965 6.0456 9.4259 6.10176 9.4259 6.17122L9.42582 7.84821V7.86772C9.42582 7.98972 9.52516 8.08906 9.64732 8.08906C9.70655 8.08906 9.76208 8.06601 9.80409 8.02416C9.84577 7.98255 9.86874 7.92702 9.86874 7.86763V6.17113C9.86874 6.10176 9.9249 6.04551 9.99436 6.04551C10.0637 6.04551 10.12 6.10168 10.12 6.17113L10.1198 7.45169C10.1198 7.57385 10.2192 7.67319 10.3412 7.67319C10.4005 7.67319 10.4561 7.65015 10.4978 7.60854C10.5396 7.56669 10.5625 7.511 10.5625 7.45169L10.5626 4.8561C10.5626 3.99047 9.92184 3.28607 9.13422 3.28607L9.13423 3.28605Z" fill="#4CAF4F"/>
<path d="M10.3412 7.92429V7.47914H11.9139L10.5745 8.30341L10.3412 7.92429ZM10.1198 7.86663H9.67467V7.12283L10.3302 7.47432L10.1198 7.86663ZM9.98147 8.2018L9.66669 7.88703L9.66711 7.88662L9.98147 8.2018ZM9.42306 8.28101L8.97867 8.25503L9.01963 7.55443L9.63596 7.89007L9.42306 8.28101ZM9.28753 8.58747L9.60247 8.90208L9.60231 8.90224L9.28753 8.58747ZM8.4834 8.28093L8.27174 7.88932L8.88635 7.55714L8.92777 8.25454L8.4834 8.28093ZM8.2272 8.33914L8.19867 8.78338L8.19807 8.78334L8.2272 8.33914ZM7.78664 5.72741L7.4011 5.50488L8.23179 4.06574V5.72741H7.78664ZM7.5446 6.14674L7.15865 5.9249L7.15906 5.9242L7.5446 6.14674ZM6.83487 6.33756L6.61355 6.72381L6.6116 6.72268L6.83487 6.33756ZM6.63633 6.07877L7.06627 5.96336L7.0664 5.96386L6.63633 6.07877ZM6.67912 5.75547L6.29389 5.53241L6.42248 5.31032H6.67912V5.75547ZM7.51936 4.29999L7.92478 4.48381L7.91604 4.50309L7.90551 4.52145L7.51936 4.29999ZM7.55538 4.21928L7.14864 4.0384L7.14864 4.03839L7.55538 4.21928ZM7.59102 4.12788L8.01063 4.27651L8.01058 4.27663L7.59102 4.12788ZM10.8136 4.85604L10.3685 4.85605V4.85604H10.8136ZM10.8137 7.45163L11.2589 7.45162V7.45163H10.8137ZM10.6755 7.78594L10.9906 8.10042L10.9903 8.10071L10.6755 7.78594ZM10.3412 7.9243V8.36946H8.7684L10.1078 7.54518L10.3412 7.9243ZM9.13423 3.28605V2.84089H9.72438L9.56225 3.40834L9.13423 3.28605ZM7.82771 4.21186L8.24731 4.36051L8.24697 4.36147L7.82771 4.21186ZM7.78492 4.32136L8.1916 4.5024L8.19149 4.50264L7.78492 4.32136ZM7.72553 4.44021L8.06075 4.7331L7.76954 5.0664L7.43457 4.77711L7.72553 4.44021ZM7.7238 4.43871L7.33047 4.23026L7.59203 3.73672L8.01476 4.10181L7.7238 4.43871ZM6.89655 5.88115L7.28203 6.10379L7.28185 6.10411L6.89655 5.88115ZM6.87885 6.01369L6.449 6.12942L6.44863 6.12803L6.87885 6.01369ZM6.96019 6.1198L6.73846 6.50581L6.73763 6.50533L6.96019 6.1198ZM7.32689 6.02132L6.94081 5.79973L6.94142 5.79867L7.32689 6.02132ZM7.80349 5.19619L7.41801 4.97354L7.41828 4.97307L7.80349 5.19619ZM7.94475 5.13782L7.82956 5.56782L7.82845 5.56752L7.94475 5.13782ZM8.24366 8.08859L8.22015 8.53317L8.21443 8.53279L8.24366 8.08859ZM8.416 8.02433L8.73078 8.3391L8.7305 8.33938L8.416 8.02433ZM8.73189 6.17122H9.17705V6.17124L8.73189 6.17122ZM8.73182 8.25334H8.28666V8.25332L8.73182 8.25334ZM9.11 8.4101L9.42507 8.72458L9.42447 8.72518L9.11 8.4101ZM9.4259 6.17122H9.87105V6.17124L9.4259 6.17122ZM9.42582 7.84821H8.98066V7.84819L9.42582 7.84821ZM9.80409 8.02416L10.1186 8.33923L10.1183 8.33952L9.80409 8.02416ZM10.12 6.17113H10.5651V6.17119L10.12 6.17113ZM10.1198 7.45169H9.67466L9.67466 7.45164L10.1198 7.45169ZM10.4978 7.60854L10.8125 7.92331L10.8122 7.92361L10.4978 7.60854ZM10.5625 7.45169H10.1173V7.45168L10.5625 7.45169ZM10.5626 4.8561H11.0077V4.85611L10.5626 4.8561ZM9.13422 3.28607V3.73123H8.54406L8.70619 3.16378L9.13422 3.28607ZM10.3412 8.36945C10.1773 8.36945 10.0309 8.32407 9.90947 8.25895L10.3302 7.47432C10.3359 7.4774 10.3396 7.47858 10.341 7.47897C10.3423 7.47931 10.3421 7.47914 10.3412 7.47914V8.36945ZM10.565 7.86663V7.86758H9.67467V7.86663H10.565ZM10.565 7.86758C10.565 8.11175 10.4692 8.34411 10.2958 8.51699L9.66711 7.88662C9.67029 7.88344 9.67187 7.88072 9.67279 7.8785C9.67371 7.87627 9.67467 7.87284 9.67467 7.86758H10.565ZM10.2962 8.51658C10.1235 8.68933 9.89154 8.78532 9.64724 8.78532V7.89501C9.65235 7.89501 9.65571 7.89408 9.65799 7.89314C9.66027 7.89219 9.66322 7.89051 9.66669 7.88703L10.2962 8.51658ZM9.64724 8.78532C9.48119 8.78532 9.33302 8.73886 9.21016 8.67196L9.63596 7.89007C9.64175 7.89322 9.64543 7.89442 9.64689 7.89482C9.64814 7.89516 9.64803 7.89501 9.64724 7.89501V8.78532ZM9.86746 8.30699C9.85465 8.5261 9.76576 8.73861 9.60247 8.90208L8.9726 8.27286C8.97425 8.27121 8.9752 8.26975 8.97601 8.26791C8.97689 8.26591 8.97827 8.26183 8.97867 8.25503L9.86746 8.30699ZM9.60231 8.90224C9.42952 9.07502 9.19756 9.17099 8.95323 9.17099V8.28067C8.95841 8.28067 8.9618 8.27973 8.96407 8.27879C8.96635 8.27785 8.96929 8.27617 8.97276 8.2727L9.60231 8.90224ZM8.95323 9.17099C8.46177 9.17099 8.06742 8.78527 8.03903 8.30733L8.92777 8.25454C8.92822 8.26211 8.93132 8.26875 8.9368 8.27398C8.93948 8.27653 8.94219 8.27817 8.94454 8.27913C8.94662 8.27998 8.94925 8.28067 8.95323 8.28067V9.17099ZM8.69506 8.67255C8.55127 8.75027 8.38078 8.79508 8.19867 8.78338L8.25574 7.8949C8.25575 7.8949 8.2567 7.89499 8.25905 7.89445C8.26156 7.89386 8.26591 7.89247 8.27174 7.88932L8.69506 8.67255ZM8.19807 8.78334C7.7038 8.75093 7.34148 8.33059 7.34148 7.85302H8.23179C8.23179 7.86808 8.23726 7.87967 8.24411 7.88723C8.25078 7.89459 8.25532 7.89487 8.25634 7.89494L8.19807 8.78334ZM7.34148 7.85302V5.72741H8.23179V7.85302H7.34148ZM8.17218 5.94995L7.93013 6.36928L7.15906 5.9242L7.4011 5.50488L8.17218 5.94995ZM7.93054 6.36857C7.75853 6.66783 7.43835 6.85186 7.09404 6.85186V5.96154C7.12134 5.96154 7.14629 5.94641 7.15865 5.9249L7.93054 6.36857ZM7.09404 6.85186C6.9257 6.85186 6.75999 6.80771 6.61355 6.7238L7.05618 5.95132C7.06815 5.95818 7.08131 5.96154 7.09404 5.96154V6.85186ZM6.6116 6.72268C6.41174 6.60681 6.26626 6.41825 6.20626 6.19367L7.0664 5.96386C7.06599 5.96234 7.06489 5.95965 7.06274 5.95686C7.06061 5.95409 7.05864 5.95274 7.05813 5.95244L6.6116 6.72268ZM6.2064 6.19417C6.14616 5.96976 6.17769 5.73308 6.29389 5.53241L7.06436 5.97854C7.06499 5.97744 7.0661 5.9749 7.06658 5.9713C7.06706 5.9677 7.06666 5.96482 7.06627 5.96336L6.2064 6.19417ZM6.67912 5.31032C6.46076 5.36756 6.29731 5.5266 6.29609 5.52865C6.29568 5.52934 6.29508 5.53037 6.29488 5.5307C6.29477 5.53089 6.29458 5.53121 6.29452 5.53132C6.29448 5.53139 6.2944 5.53153 6.29438 5.53156C6.29432 5.53167 6.29434 5.53164 6.2945 5.53135C6.29481 5.53083 6.29531 5.52995 6.29605 5.52867C6.29751 5.52614 6.29971 5.52234 6.30261 5.51732C6.30841 5.50729 6.31693 5.49255 6.3278 5.47372C6.34954 5.43608 6.38066 5.38221 6.41816 5.31727C6.49315 5.18742 6.59364 5.01339 6.69564 4.83673C6.89998 4.48282 7.10947 4.11989 7.1332 4.07852L7.90551 4.52145C7.88093 4.56431 7.67035 4.92913 7.46667 5.2819C7.36465 5.45858 7.26415 5.63264 7.18914 5.76252C7.15163 5.82746 7.1205 5.88137 7.09873 5.91905C7.08785 5.93789 7.0793 5.95269 7.07347 5.96278C7.07055 5.96783 7.06829 5.97174 7.06675 5.9744C7.06599 5.97572 7.06536 5.97681 7.0649 5.97761C7.06468 5.97798 7.06441 5.97844 7.06416 5.97888C7.06406 5.97905 7.06378 5.97954 7.06343 5.98012C7.06322 5.98049 7.06259 5.98156 7.06217 5.98226C7.06094 5.98434 6.89749 6.14339 6.67912 6.20063V5.31032ZM7.11393 4.11616C7.11883 4.10535 7.13436 4.07051 7.14864 4.0384L7.96213 4.40017C7.94857 4.43067 7.93137 4.46929 7.92478 4.48381L7.11393 4.11616ZM7.14864 4.03839C7.15483 4.02448 7.16167 4.0067 7.17145 3.97913L8.01058 4.27663C7.99849 4.31073 7.98253 4.35431 7.96213 4.40018L7.14864 4.03839ZM7.17141 3.97925C7.47291 3.12806 8.23179 2.58978 9.13422 2.58978V3.48009C8.61042 3.48009 8.18672 3.77936 8.01063 4.27651L7.17141 3.97925ZM9.13422 2.58978C10.3394 2.58978 11.2588 3.64065 11.2588 4.85604H10.3685C10.3685 4.06309 9.78114 3.48009 9.13422 3.48009V2.58978ZM11.2588 4.85602L11.2589 7.45162L10.3686 7.45165L10.3685 4.85605L11.2588 4.85602ZM11.2589 7.45163C11.2589 7.69575 11.1631 7.92758 10.9906 8.10042L10.3605 7.47146C10.364 7.46793 10.3657 7.46494 10.3667 7.4626C10.3676 7.46026 10.3686 7.45682 10.3686 7.45163H11.2589ZM10.9903 8.10071C10.8175 8.27352 10.5855 8.36946 10.3412 8.36946V7.47914C10.3464 7.47914 10.3498 7.47819 10.3521 7.47725C10.3543 7.47631 10.3573 7.47464 10.3607 7.47117L10.9903 8.10071ZM10.1078 7.54518L10.1079 7.54517L10.5745 8.30341L10.5745 8.30342L10.1078 7.54518ZM9.13423 3.7312C8.71098 3.7312 8.39004 3.95761 8.24731 4.36051L7.40811 4.06321C7.67612 3.30669 8.33196 2.84089 9.13423 2.84089V3.7312ZM8.24697 4.36147C8.23292 4.40085 8.21466 4.45058 8.1916 4.5024L7.37824 4.14031C7.38711 4.12039 7.39623 4.0965 7.40845 4.06225L8.24697 4.36147ZM8.19149 4.50264C8.1711 4.54836 8.15403 4.58697 8.14096 4.61312C8.13285 4.62935 8.11971 4.65437 8.10067 4.68208C8.08138 4.71015 8.06231 4.73133 8.06075 4.7331L7.39031 4.14731C7.39135 4.14611 7.39101 4.1465 7.39048 4.14711C7.3898 4.1479 7.38808 4.14992 7.3858 4.15269C7.38073 4.15887 7.3741 4.16739 7.36694 4.17781C7.35301 4.19807 7.34522 4.21379 7.34454 4.21517C7.34403 4.21618 7.34435 4.21558 7.34586 4.21234C7.34733 4.2092 7.3494 4.20469 7.35238 4.19811C7.35846 4.18467 7.36654 4.16654 7.37835 4.14008L8.19149 4.50264ZM7.43457 4.77711L7.43284 4.77562L8.01476 4.10181L8.01649 4.1033L7.43457 4.77711ZM8.11713 4.64717C8.04746 4.77863 7.84856 5.12288 7.28203 6.10379L6.51107 5.65851C7.08556 4.66383 7.27083 4.3428 7.33047 4.23026L8.11713 4.64717ZM7.28185 6.10411C7.31747 6.04255 7.3274 5.96829 7.30908 5.89935L6.44863 6.12803C6.4064 5.96911 6.42876 5.80077 6.51126 5.65819L7.28185 6.10411ZM7.3087 5.89796C7.29039 5.82992 7.24536 5.77042 7.18274 5.73427L6.73763 6.50533C6.59462 6.42277 6.49155 6.28744 6.449 6.12942L7.3087 5.89796ZM7.18191 5.73379C7.13124 5.70469 7.08196 5.70488 7.04793 5.71404C7.01403 5.72317 6.97056 5.74789 6.94081 5.79973L7.71298 6.24291C7.51897 6.58094 7.07559 6.69945 6.73846 6.50581L7.18191 5.73379ZM6.94142 5.79867L7.41801 4.97354L8.18896 5.41883L7.71237 6.24397L6.94142 5.79867ZM7.41828 4.97307C7.54686 4.75108 7.8093 4.63999 8.06106 4.70813L7.82845 5.56752C7.96977 5.60576 8.11706 5.54297 8.18869 5.4193L7.41828 4.97307ZM8.05995 4.70783C8.30969 4.77474 8.48296 5.00105 8.48296 5.25911H7.59265C7.59265 5.40359 7.68963 5.53033 7.82956 5.56781L8.05995 4.70783ZM8.48296 5.25911V7.8531H7.59265V5.25911H8.48296ZM8.48296 7.8531C8.48296 7.80237 8.46417 7.75626 8.43332 7.72097C8.40252 7.68573 8.34817 7.64935 8.2729 7.6444L8.21443 8.53279C7.83969 8.50813 7.59265 8.18169 7.59265 7.8531H8.48296ZM8.26717 7.64406C8.21458 7.64128 8.15033 7.66054 8.10151 7.70928L8.7305 8.33938C8.58996 8.47968 8.40363 8.54283 8.22015 8.53313L8.26717 7.64406ZM8.10123 7.70956C8.05899 7.7518 8.0355 7.80969 8.0355 7.86772H8.92582C8.92582 8.04453 8.8564 8.21348 8.73078 8.3391L8.10123 7.70956ZM8.0355 7.86772V6.17122H8.92582V7.86772H8.0355ZM8.0355 6.17122C8.0355 5.85599 8.29105 5.60045 8.60628 5.60045V6.49076C8.78275 6.49076 8.92582 6.3477 8.92582 6.17122H8.0355ZM8.60628 5.60045C8.92133 5.60045 9.17705 5.85574 9.17705 6.17122H8.28674C8.28674 6.3478 8.42998 6.49076 8.60628 6.49076V5.60045ZM9.17705 6.17124L9.17697 8.25335L8.28666 8.25332L8.28674 6.1712L9.17705 6.17124ZM9.17697 8.25334C9.17697 8.12956 9.07701 8.0296 8.95324 8.0296V8.91991C8.58531 8.91991 8.28666 8.62127 8.28666 8.25334H9.17697ZM8.95324 8.0296C8.8953 8.0296 8.8377 8.05295 8.79554 8.09503L9.42447 8.72518C9.29877 8.85063 9.12979 8.91991 8.95324 8.91991V8.0296ZM8.79494 8.09563C8.75285 8.13779 8.72951 8.1954 8.72951 8.25334H9.61982C9.61982 8.42989 9.55054 8.59888 9.42507 8.72458L8.79494 8.09563ZM8.72951 8.25334V6.17122H9.61982V8.25334H8.72951ZM8.72951 6.17122C8.72951 5.85618 8.98479 5.60045 9.30028 5.60045V6.49076C9.47686 6.49076 9.61982 6.34751 9.61982 6.17122H8.72951ZM9.30028 5.60045C9.61533 5.60045 9.87105 5.85573 9.87105 6.17122H8.98074C8.98074 6.3478 9.12398 6.49076 9.30028 6.49076V5.60045ZM9.87105 6.17124L9.87097 7.84823L8.98066 7.84819L8.98074 6.1712L9.87105 6.17124ZM9.87097 7.84821V7.86772H8.98066V7.84821H9.87097ZM9.87097 7.86772C9.87097 7.74365 9.7708 7.6439 9.64732 7.6439V8.53421C9.27953 8.53421 8.98066 8.23579 8.98066 7.86772H9.87097ZM9.64732 7.6439C9.58817 7.6439 9.5309 7.66796 9.4899 7.7088L10.1183 8.33952C9.99326 8.46406 9.82493 8.53421 9.64732 8.53421V7.6439ZM9.48961 7.70909C9.44703 7.7516 9.42359 7.80967 9.42359 7.86763H10.3139C10.3139 8.04437 10.2445 8.21351 10.1186 8.33923L9.48961 7.70909ZM9.42359 7.86763V6.17113H10.3139V7.86763H9.42359ZM9.42359 6.17113C9.42359 5.85608 9.67887 5.60036 9.99436 5.60036V6.49067C10.1709 6.49067 10.3139 6.34743 10.3139 6.17113H9.42359ZM9.99436 5.60036C10.3094 5.60036 10.5651 5.85564 10.5651 6.17113H9.67482C9.67482 6.34771 9.81806 6.49067 9.99436 6.49067V5.60036ZM10.5651 6.17119L10.565 7.45175L9.67466 7.45164L9.67482 6.17108L10.5651 6.17119ZM10.565 7.45169C10.565 7.32821 10.4652 7.22804 10.3412 7.22804V8.11835C9.9731 8.11835 9.67466 7.81949 9.67466 7.45169H10.565ZM10.3412 7.22804C10.2828 7.22804 10.2252 7.25168 10.1833 7.29347L10.8122 7.92361C10.687 8.04862 10.5183 8.11835 10.3412 8.11835V7.22804ZM10.183 7.29377C10.1406 7.33616 10.1173 7.39401 10.1173 7.45169H11.0077C11.0077 7.628 10.9386 7.79723 10.8125 7.92331L10.183 7.29377ZM10.1173 7.45168L10.1174 4.85608L11.0077 4.85611L11.0077 7.45171L10.1173 7.45168ZM10.1174 4.8561C10.1174 4.19575 9.63729 3.73123 9.13422 3.73123V2.84092C10.2064 2.84092 11.0077 3.78519 11.0077 4.8561H10.1174ZM8.70619 3.16378L8.7062 3.16375L9.56225 3.40834L9.56225 3.40837L8.70619 3.16378Z" fill="#4CAF4F" mask="url(#path-1-inside-1_212_1413)"/>
</g>
<g id="Vector_2">
<mask id="path-3-inside-2_212_1413" fill="white">
<path d="M5.40575 9.72827L7.22857 8.63475C7.44834 8.50277 7.73112 8.55885 7.87207 8.7625C7.92351 8.83667 7.94979 8.92312 7.95388 9.01114C8.02184 8.97567 8.09578 8.95639 8.17105 8.95639C8.20959 8.95639 8.24829 8.96119 8.28652 8.97071C8.40899 9.00131 8.51219 9.07784 8.57709 9.18607C8.64206 9.29446 8.66102 9.42149 8.63042 9.54382C8.60218 9.657 8.53335 9.75227 8.43763 9.81763C8.50456 9.85712 8.5623 9.911 8.60336 9.97959C8.66833 10.088 8.68729 10.2149 8.65677 10.3374C8.62617 10.4597 8.54964 10.5629 8.44125 10.628L8.44062 10.6284C8.50638 10.6678 8.56309 10.7211 8.60368 10.7887C8.66873 10.8971 8.68769 11.0241 8.65709 11.1466C8.62641 11.269 8.54988 11.3722 8.44165 11.4371L6.21596 12.7724C5.80056 13.0215 5.32035 13.1075 4.86397 13.0143C4.40351 12.9202 4.02217 12.6555 3.79029 12.269C3.42335 11.6574 3.47834 10.9348 3.93353 10.3834C3.95438 10.3582 3.9749 10.3325 3.99355 10.306C4.01329 10.2779 4.03634 10.2448 4.0442 10.2335C4.09132 10.1493 4.86013 8.76417 4.86005 8.76433C4.93769 8.62424 5.08321 8.54494 5.23328 8.54502C5.30329 8.54502 5.37432 8.56225 5.43984 8.59859C5.51897 8.6428 5.58544 8.70722 5.63193 8.78485C5.7275 8.94414 5.73088 9.14346 5.6409 9.30478L5.40575 9.72827ZM5.41669 8.91399C5.3923 8.87332 5.35879 8.84091 5.31781 8.81795C5.2331 8.77107 5.12644 8.80158 5.0798 8.88598C4.52967 9.87708 4.34214 10.2148 4.26977 10.335L4.27142 10.3354C4.26536 10.3556 4.26536 10.3556 4.19913 10.4502C4.17664 10.4822 4.15217 10.513 4.12724 10.5432C3.73582 11.0175 3.69038 11.6143 4.00555 12.1398C4.20078 12.4652 4.52344 12.6884 4.91413 12.7682C5.30907 12.8485 5.72533 12.7737 6.08662 12.557L8.31251 11.2217C8.36332 11.1912 8.39919 11.1429 8.41351 11.0855C8.42782 11.0283 8.41894 10.9687 8.38842 10.9179C8.32565 10.8133 8.18933 10.7789 8.08472 10.8419L6.98665 11.5007C6.92719 11.5364 6.84994 11.5172 6.81431 11.4577C6.7786 11.3982 6.79787 11.321 6.85734 11.2853L7.95548 10.6265L8.31212 10.4126C8.36293 10.3821 8.39888 10.3337 8.4132 10.2765C8.42751 10.2192 8.41862 10.1596 8.3881 10.1088C8.32526 10.0041 8.18894 9.97007 8.0844 10.0328L6.62962 10.9056C6.57 10.9413 6.49299 10.922 6.45728 10.8625C6.42157 10.8031 6.44092 10.7259 6.50031 10.6902L8.28577 9.61911C8.33658 9.58859 8.37245 9.54029 8.38677 9.48295C8.40108 9.42569 8.3922 9.36614 8.36175 9.31533C8.33131 9.2646 8.28294 9.22873 8.2256 9.21441C8.16794 9.2001 8.10863 9.20898 8.05798 9.23935L7.72746 9.43765C7.72738 9.43765 7.72738 9.43772 7.7273 9.43772H7.72722L6.27252 10.3104C6.2129 10.3463 6.13581 10.327 6.10018 10.2674C6.06447 10.2079 6.08382 10.1308 6.1432 10.0951L7.59799 9.22236C7.6488 9.19184 7.68475 9.14346 7.69906 9.08628C7.71479 9.02351 7.70284 8.95932 7.66555 8.90552C7.6009 8.812 7.46262 8.78714 7.35777 8.85015L5.13349 10.1845C5.0848 10.2136 5.02242 10.2065 4.9816 10.1671C4.9407 10.1276 4.93149 10.0656 4.95902 10.0159L5.42154 9.18264C5.46795 9.09934 5.46614 8.99645 5.41666 8.91402L5.41669 8.91399Z"/>
</mask>
<path d="M5.40575 9.72827L7.22857 8.63475C7.44834 8.50277 7.73112 8.55885 7.87207 8.7625C7.92351 8.83667 7.94979 8.92312 7.95388 9.01114C8.02184 8.97567 8.09578 8.95639 8.17105 8.95639C8.20959 8.95639 8.24829 8.96119 8.28652 8.97071C8.40899 9.00131 8.51219 9.07784 8.57709 9.18607C8.64206 9.29446 8.66102 9.42149 8.63042 9.54382C8.60218 9.657 8.53335 9.75227 8.43763 9.81763C8.50456 9.85712 8.5623 9.911 8.60336 9.97959C8.66833 10.088 8.68729 10.2149 8.65677 10.3374C8.62617 10.4597 8.54964 10.5629 8.44125 10.628L8.44062 10.6284C8.50638 10.6678 8.56309 10.7211 8.60368 10.7887C8.66873 10.8971 8.68769 11.0241 8.65709 11.1466C8.62641 11.269 8.54988 11.3722 8.44165 11.4371L6.21596 12.7724C5.80056 13.0215 5.32035 13.1075 4.86397 13.0143C4.40351 12.9202 4.02217 12.6555 3.79029 12.269C3.42335 11.6574 3.47834 10.9348 3.93353 10.3834C3.95438 10.3582 3.9749 10.3325 3.99355 10.306C4.01329 10.2779 4.03634 10.2448 4.0442 10.2335C4.09132 10.1493 4.86013 8.76417 4.86005 8.76433C4.93769 8.62424 5.08321 8.54494 5.23328 8.54502C5.30329 8.54502 5.37432 8.56225 5.43984 8.59859C5.51897 8.6428 5.58544 8.70722 5.63193 8.78485C5.7275 8.94414 5.73088 9.14346 5.6409 9.30478L5.40575 9.72827ZM5.41669 8.91399C5.3923 8.87332 5.35879 8.84091 5.31781 8.81795C5.2331 8.77107 5.12644 8.80158 5.0798 8.88598C4.52967 9.87708 4.34214 10.2148 4.26977 10.335L4.27142 10.3354C4.26536 10.3556 4.26536 10.3556 4.19913 10.4502C4.17664 10.4822 4.15217 10.513 4.12724 10.5432C3.73582 11.0175 3.69038 11.6143 4.00555 12.1398C4.20078 12.4652 4.52344 12.6884 4.91413 12.7682C5.30907 12.8485 5.72533 12.7737 6.08662 12.557L8.31251 11.2217C8.36332 11.1912 8.39919 11.1429 8.41351 11.0855C8.42782 11.0283 8.41894 10.9687 8.38842 10.9179C8.32565 10.8133 8.18933 10.7789 8.08472 10.8419L6.98665 11.5007C6.92719 11.5364 6.84994 11.5172 6.81431 11.4577C6.7786 11.3982 6.79787 11.321 6.85734 11.2853L7.95548 10.6265L8.31212 10.4126C8.36293 10.3821 8.39888 10.3337 8.4132 10.2765C8.42751 10.2192 8.41862 10.1596 8.3881 10.1088C8.32526 10.0041 8.18894 9.97007 8.0844 10.0328L6.62962 10.9056C6.57 10.9413 6.49299 10.922 6.45728 10.8625C6.42157 10.8031 6.44092 10.7259 6.50031 10.6902L8.28577 9.61911C8.33658 9.58859 8.37245 9.54029 8.38677 9.48295C8.40108 9.42569 8.3922 9.36614 8.36175 9.31533C8.33131 9.2646 8.28294 9.22873 8.2256 9.21441C8.16794 9.2001 8.10863 9.20898 8.05798 9.23935L7.72746 9.43765C7.72738 9.43765 7.72738 9.43772 7.7273 9.43772H7.72722L6.27252 10.3104C6.2129 10.3463 6.13581 10.327 6.10018 10.2674C6.06447 10.2079 6.08382 10.1308 6.1432 10.0951L7.59799 9.22236C7.6488 9.19184 7.68475 9.14346 7.69906 9.08628C7.71479 9.02351 7.70284 8.95932 7.66555 8.90552C7.6009 8.812 7.46262 8.78714 7.35777 8.85015L5.13349 10.1845C5.0848 10.2136 5.02242 10.2065 4.9816 10.1671C4.9407 10.1276 4.93149 10.0656 4.95902 10.0159L5.42154 9.18264C5.46795 9.09934 5.46614 8.99645 5.41666 8.91402L5.41669 8.91399Z" fill="#4CAF4F"/>
<path d="M5.40575 9.72827L5.63476 10.11L4.21006 10.9647L5.01657 9.51217L5.40575 9.72827ZM7.22857 8.63475L7.45776 9.01637L7.45757 9.01649L7.22857 8.63475ZM7.87207 8.7625L7.50628 9.01619L7.50604 9.01585L7.87207 8.7625ZM7.95388 9.01114L8.15987 9.40577L7.54157 9.72851L7.5092 9.0318L7.95388 9.01114ZM8.28652 8.97071L8.39406 8.53874L8.39442 8.53883L8.28652 8.97071ZM8.57709 9.18607L8.95886 8.95713L8.9589 8.9572L8.57709 9.18607ZM8.63042 9.54382L8.1985 9.43606L8.19857 9.43579L8.63042 9.54382ZM8.43763 9.81763L8.21145 10.201L7.608 9.84508L8.18661 9.45L8.43763 9.81763ZM8.60336 9.97959L8.22155 10.2085L8.22141 10.2082L8.60336 9.97959ZM8.65677 10.3374L9.08871 10.4451L9.08862 10.4454L8.65677 10.3374ZM8.44125 10.628L8.20528 10.2504L8.21215 10.2463L8.44125 10.628ZM8.44062 10.6284L8.21179 11.0102L7.58794 10.6364L8.20469 10.2509L8.44062 10.6284ZM8.60368 10.7887L8.98527 10.5594L8.98537 10.5596L8.60368 10.7887ZM8.65709 11.1466L9.08897 11.2545L9.08889 11.2548L8.65709 11.1466ZM8.44165 11.4371L8.67079 11.8188L8.67065 11.8189L8.44165 11.4371ZM6.21596 12.7724L6.44496 13.1541L6.4449 13.1541L6.21596 12.7724ZM4.86397 13.0143L4.77489 13.4504L4.77486 13.4504L4.86397 13.0143ZM3.79029 12.269L4.17201 12.0399L4.17203 12.04L3.79029 12.269ZM3.93353 10.3834L3.59022 10.1L3.59068 10.0994L3.93353 10.3834ZM3.99355 10.306L3.62906 10.0504L3.62939 10.0499L3.99355 10.306ZM4.0442 10.2335L4.43264 10.451L4.42212 10.4697L4.40985 10.4874L4.0442 10.2335ZM4.86005 8.76433L5.24941 8.98011L4.46189 8.56525L4.86005 8.76433ZM5.23328 8.54502V8.99018H5.23304L5.23328 8.54502ZM5.43984 8.59859L5.65575 8.20929L5.65695 8.20996L5.43984 8.59859ZM5.63193 8.78485L5.25021 9.01388L5.25001 9.01354L5.63193 8.78485ZM5.6409 9.30478L5.25171 9.08868L5.25214 9.08791L5.6409 9.30478ZM5.41669 8.91399L5.79847 8.68507L5.95287 8.94257L5.77197 9.18219L5.41669 8.91399ZM5.31781 8.81795L5.53335 8.42845L5.53544 8.42962L5.31781 8.81795ZM5.0798 8.88598L5.46942 9.10129L5.46901 9.10203L5.0798 8.88598ZM4.26977 10.335L4.16666 10.7681L3.57432 10.627L3.8884 10.1054L4.26977 10.335ZM4.27142 10.3354L4.37453 9.90237L4.83365 10.0117L4.69771 10.4636L4.27142 10.3354ZM4.19913 10.4502L4.56383 10.7054L4.56335 10.7061L4.19913 10.4502ZM4.12724 10.5432L4.47089 10.8262L4.47056 10.8266L4.12724 10.5432ZM4.00555 12.1398L3.6238 12.3687L3.6238 12.3687L4.00555 12.1398ZM4.91413 12.7682L4.82543 13.2044L4.82509 13.2043L4.91413 12.7682ZM6.08662 12.557L5.85759 12.1753L5.85762 12.1752L6.08662 12.557ZM8.31251 11.2217L8.08351 10.8399L8.08374 10.8398L8.31251 11.2217ZM8.41351 11.0855L7.98161 10.9777L7.98164 10.9776L8.41351 11.0855ZM8.38842 10.9179L8.0068 11.1471L8.0067 11.1469L8.38842 10.9179ZM8.08472 10.8419L8.31438 11.2233L8.31373 11.2236L8.08472 10.8419ZM6.98665 11.5007L6.75748 11.1191L6.75764 11.119L6.98665 11.5007ZM6.81431 11.4577L7.19594 11.2285L7.1963 11.2291L6.81431 11.4577ZM6.85734 11.2853L6.62816 10.9037L6.62834 10.9036L6.85734 11.2853ZM7.95548 10.6265L8.18449 11.0083L8.18448 11.0083L7.95548 10.6265ZM8.31212 10.4126L8.54132 10.7942L8.54113 10.7943L8.31212 10.4126ZM8.4132 10.2765L8.8451 10.3843L8.84503 10.3846L8.4132 10.2765ZM8.3881 10.1088L8.00665 10.3383L8.00644 10.3379L8.3881 10.1088ZM8.0844 10.0328L8.31356 10.4145L8.31341 10.4146L8.0844 10.0328ZM6.62962 10.9056L6.40052 10.5239L6.40062 10.5238L6.62962 10.9056ZM6.45728 10.8625L6.83891 10.6334L6.83891 10.6334L6.45728 10.8625ZM6.50031 10.6902L6.27091 10.3087L6.27131 10.3085L6.50031 10.6902ZM8.28577 9.61911L8.51498 10.0007L8.51477 10.0008L8.28577 9.61911ZM8.38677 9.48295L7.95487 9.37513L7.9549 9.37499L8.38677 9.48295ZM8.36175 9.31533L8.74347 9.0863L8.74363 9.08656L8.36175 9.31533ZM8.2256 9.21441L8.33287 8.78237L8.33342 8.78251L8.2256 9.21441ZM8.05798 9.23935L7.82896 8.85762L7.82912 8.85753L8.05798 9.23935ZM7.72746 9.43765L7.95648 9.81937L7.85075 9.8828H7.72746V9.43765ZM7.72722 9.43772L7.49821 9.05599L7.60393 8.99257H7.72722V9.43772ZM6.27252 10.3104L6.04305 9.92899L6.04351 9.92871L6.27252 10.3104ZM6.10018 10.2674L6.48181 10.0382L6.48216 10.0388L6.10018 10.2674ZM6.1432 10.0951L5.91381 9.71358L5.9142 9.71334L6.1432 10.0951ZM7.59799 9.22236L7.82719 9.60397L7.82699 9.60409L7.59799 9.22236ZM7.69906 9.08628L7.26723 8.97818L7.26726 8.97806L7.69906 9.08628ZM7.66555 8.90552L7.29967 9.15908L7.29938 9.15867L7.66555 8.90552ZM7.35777 8.85015L7.58705 9.23171L7.58677 9.23188L7.35777 8.85015ZM5.13349 10.1845L5.36249 10.5662L5.36188 10.5666L5.13349 10.1845ZM4.9816 10.1671L4.67243 10.4874L4.67242 10.4874L4.9816 10.1671ZM4.95902 10.0159L4.56974 9.80002L4.5698 9.79992L4.95902 10.0159ZM5.42154 9.18264L5.03232 8.96661L5.03266 8.96598L5.42154 9.18264ZM5.41666 8.91402L5.03497 9.14309L4.8804 8.88554L5.06138 8.64581L5.41666 8.91402ZM5.17675 9.34653L6.99957 8.25302L7.45757 9.01649L5.63476 10.11L5.17675 9.34653ZM6.99938 8.25313C7.40885 8.00721 7.95607 8.10168 8.2381 8.50915L7.50604 9.01585C7.50551 9.01508 7.50298 9.01134 7.49322 9.0094C7.4832 9.00741 7.47052 9.00871 7.45776 9.01637L6.99938 8.25313ZM8.23786 8.50881C8.34191 8.65883 8.391 8.82802 8.39855 8.99048L7.5092 9.0318C7.50857 9.01821 7.50512 9.01451 7.50628 9.01619L8.23786 8.50881ZM7.74789 8.61651C7.87478 8.55028 8.01897 8.51124 8.17105 8.51124V9.40155C8.17258 9.40155 8.16889 9.40106 8.15987 9.40577L7.74789 8.61651ZM8.17105 8.51124C8.24664 8.51124 8.32144 8.52066 8.39406 8.53874L8.17897 9.40268C8.17514 9.40172 8.17254 9.40155 8.17105 9.40155V8.51124ZM8.39442 8.53883C8.6316 8.59809 8.83327 8.7477 8.95886 8.95713L8.19531 9.41501C8.19274 9.41072 8.19026 9.40835 8.1883 9.40689C8.18634 9.40544 8.18339 9.40378 8.17862 9.40259L8.39442 8.53883ZM8.9589 8.9572C9.08436 9.1665 9.1216 9.41466 9.06227 9.65184L8.19857 9.43579C8.19973 9.43113 8.19967 9.42781 8.19931 9.42537C8.19894 9.42292 8.19799 9.41947 8.19527 9.41494L8.9589 8.9572ZM9.06234 9.65157C9.00639 9.87583 8.86996 10.0615 8.68865 10.1853L8.18661 9.45C8.19223 9.44616 8.19496 9.44292 8.19616 9.44123C8.19725 9.43969 8.19796 9.43823 8.1985 9.43606L9.06234 9.65157ZM8.6638 9.43421C8.78711 9.50695 8.90174 9.61134 8.98531 9.75094L8.22141 10.2082C8.22187 10.209 8.22199 10.2089 8.22094 10.2079C8.21977 10.2068 8.21688 10.2042 8.21145 10.201L8.6638 9.43421ZM8.98517 9.75072C9.11066 9.96006 9.14779 10.208 9.08871 10.4451L8.22482 10.2298C8.22605 10.2249 8.22597 10.2214 8.2256 10.2189C8.22523 10.2165 8.22427 10.213 8.22155 10.2085L8.98517 9.75072ZM9.08862 10.4454C9.0293 10.6826 8.87964 10.884 8.67035 11.0097L8.21215 10.2463C8.21667 10.2436 8.21914 10.241 8.22064 10.239C8.22212 10.237 8.22375 10.234 8.22492 10.2294L9.08862 10.4454ZM8.67718 11.0055L8.67655 11.0059L8.20469 10.2509L8.20532 10.2505L8.67718 11.0055ZM8.66945 10.2465C8.79054 10.3191 8.90288 10.4223 8.98527 10.5594L8.22208 11.0179C8.22243 11.0185 8.22244 11.0183 8.2213 11.0172C8.22006 11.016 8.21715 11.0134 8.21179 11.0102L8.66945 10.2465ZM8.98537 10.5596C9.11108 10.7691 9.14823 11.0173 9.08896 11.2545L8.22521 11.0387C8.22641 11.0338 8.22633 11.0305 8.22597 11.028C8.22561 11.0256 8.22468 11.0222 8.22199 11.0178L8.98537 10.5596ZM9.08889 11.2548C9.02951 11.4917 8.88001 11.6932 8.67079 11.8188L8.2125 11.0555C8.21689 11.0529 8.21935 11.0503 8.22087 11.0482C8.22239 11.0462 8.22408 11.0432 8.22529 11.0383L9.08889 11.2548ZM8.67065 11.8189L6.44496 13.1541L5.98695 12.3906L8.21264 11.0554L8.67065 11.8189ZM6.4449 13.1541C5.93828 13.458 5.34511 13.5669 4.77489 13.4504L4.95305 12.5781C5.29558 12.6481 5.66284 12.585 5.98701 12.3906L6.4449 13.1541ZM4.77486 13.4504C4.19806 13.3326 3.70767 12.9966 3.40855 12.498L4.17203 12.04C4.33666 12.3144 4.60896 12.5078 4.95308 12.5781L4.77486 13.4504ZM3.40858 12.498C2.94422 11.7241 3.01548 10.7963 3.59022 10.1L4.27684 10.6667C3.9412 11.0734 3.90247 11.5907 4.17201 12.0399L3.40858 12.498ZM3.59068 10.0994C3.6091 10.0772 3.6207 10.0623 3.62906 10.0504L4.35804 10.5615C4.32911 10.6028 4.29965 10.6392 4.27638 10.6673L3.59068 10.0994ZM3.62939 10.0499C3.64863 10.0226 3.67118 9.99023 3.67856 9.97961L4.40985 10.4874C4.40149 10.4994 4.37795 10.5332 4.3577 10.562L3.62939 10.0499ZM3.65577 10.0161C3.67882 9.97489 3.88215 9.60874 4.08063 9.25122C4.17966 9.07284 4.27722 8.89709 4.35002 8.76594C4.38642 8.70036 4.41663 8.64594 4.43774 8.60792C4.44829 8.5889 4.45657 8.57399 4.46221 8.56383C4.46503 8.55875 4.46719 8.55486 4.46865 8.55223C4.46938 8.55092 4.46993 8.54991 4.47031 8.54923C4.4705 8.5489 4.47065 8.54862 4.47076 8.54843C4.47081 8.54833 4.47087 8.54822 4.47093 8.54811C4.47097 8.54805 4.47105 8.54791 4.4711 8.54781C4.47125 8.54754 5.06818 8.37082 5.25821 8.96341L4.46189 8.56525C4.65193 9.15784 5.24885 8.98113 5.24899 8.98088C5.24903 8.9808 5.24909 8.98069 5.2491 8.98067C5.24912 8.98064 5.24911 8.98066 5.24907 8.98073C5.249 8.98087 5.24887 8.98109 5.24869 8.98142C5.24833 8.98207 5.24778 8.98305 5.24706 8.98435C5.24561 8.98696 5.24345 8.99085 5.24063 8.99593C5.235 9.00608 5.22672 9.02099 5.21617 9.04C5.19506 9.07803 5.16485 9.13245 5.12845 9.19803C5.05565 9.32919 4.95807 9.50496 4.85903 9.68337C4.66134 10.0394 4.4567 10.408 4.43264 10.451L3.65577 10.0161ZM4.47069 8.54855C4.63006 8.26098 4.92833 8.0997 5.23352 8.09987L5.23304 8.99018C5.23622 8.99018 5.23896 8.98942 5.24158 8.98792C5.24483 8.98605 5.24782 8.98299 5.24941 8.98011L4.47069 8.54855ZM5.23328 8.09987C5.37669 8.09987 5.52231 8.13529 5.65575 8.2093L5.22394 8.98788C5.22633 8.98921 5.22989 8.99018 5.23328 8.99018V8.09987ZM5.65695 8.20996C5.80384 8.29202 5.92723 8.4115 6.01385 8.55616L5.25001 9.01354C5.24365 9.00293 5.23411 8.99357 5.22274 8.98722L5.65695 8.20996ZM6.01365 8.55582C6.19072 8.85095 6.19774 9.22033 6.02965 9.52164L5.25214 9.08791C5.26402 9.0666 5.26427 9.03732 5.25021 9.01388L6.01365 8.55582ZM6.03008 9.52087L5.79494 9.94436L5.01657 9.51217L5.25171 9.08868L6.03008 9.52087ZM5.0349 9.14291C5.05055 9.169 5.07372 9.19145 5.10018 9.20627L5.53544 8.42962C5.64387 8.49038 5.73406 8.57764 5.79847 8.68507L5.0349 9.14291ZM5.10227 9.20744C5.23147 9.27894 5.39639 9.23345 5.46942 9.10129L4.69017 8.67068C4.85648 8.36972 5.23472 8.26319 5.53335 8.42845L5.10227 9.20744ZM5.46901 9.10203C4.92259 10.0864 4.72884 10.4356 4.65113 10.5647L3.8884 10.1054C3.95543 9.99408 4.13675 9.66772 4.69058 8.66994L5.46901 9.10203ZM4.37287 9.90198L4.37453 9.90237L4.16831 10.7685L4.16666 10.7681L4.37287 9.90198ZM4.69771 10.4636C4.69708 10.4657 4.68892 10.4945 4.67469 10.527C4.66035 10.5598 4.64494 10.5855 4.6345 10.6021C4.61804 10.6283 4.59264 10.6643 4.56383 10.7054L3.83443 10.1949C3.85133 10.1708 3.8628 10.1544 3.87124 10.1422C3.87535 10.1362 3.8781 10.1322 3.87995 10.1294C3.88186 10.1266 3.88201 10.1263 3.88118 10.1276C3.87977 10.1298 3.86964 10.1459 3.85908 10.17C3.85373 10.1823 3.84987 10.1929 3.84728 10.2006C3.84612 10.204 3.84532 10.2066 3.84502 10.2076C3.84478 10.2083 3.84465 10.2088 3.84513 10.2072L4.69771 10.4636ZM4.56335 10.7061C4.53122 10.7519 4.49844 10.7927 4.47089 10.8262L3.78359 10.2603C3.8059 10.2332 3.82205 10.2125 3.83491 10.1942L4.56335 10.7061ZM4.47056 10.8266C4.19861 11.1561 4.16954 11.5477 4.38731 11.9108L3.6238 12.3687C3.21121 11.6808 3.27303 10.8789 3.78392 10.2599L4.47056 10.8266ZM4.3873 11.9108C4.51475 12.1233 4.7278 12.2758 5.00318 12.332L4.82509 13.2043C4.31909 13.101 3.88682 12.8072 3.6238 12.3687L4.3873 11.9108ZM5.00284 12.3319C5.28374 12.3891 5.58718 12.3375 5.85759 12.1753L6.31565 12.9387C5.86348 13.21 5.3344 13.3079 4.82543 13.2044L5.00284 12.3319ZM5.85762 12.1752L8.08351 10.8399L8.54151 11.6034L6.31562 12.9387L5.85762 12.1752ZM8.08374 10.8398C8.03331 10.87 7.99597 10.9201 7.98161 10.9777L8.84541 11.1933C8.80241 11.3656 8.69334 11.5125 8.54128 11.6035L8.08374 10.8398ZM7.98164 10.9776C7.96723 11.0352 7.97667 11.0969 8.0068 11.1471L8.77003 10.6887C8.8612 10.8405 8.88842 11.0213 8.84537 11.1935L7.98164 10.9776ZM8.0067 11.1469C8.06988 11.2522 8.207 11.2879 8.31438 11.2233L7.85505 10.4606C8.17166 10.2699 8.58141 10.3743 8.77013 10.6889L8.0067 11.1469ZM8.31373 11.2236L7.21566 11.8824L6.75764 11.119L7.8557 10.4602L8.31373 11.2236ZM7.21583 11.8823C6.94613 12.0443 6.5948 11.9577 6.43233 11.6862L7.1963 11.2291C7.10509 11.0767 6.90824 11.0285 6.75748 11.1191L7.21583 11.8823ZM6.43268 11.6868C6.27037 11.4165 6.35799 11.0659 6.62816 10.9037L7.08651 11.6669C7.23776 11.5761 7.28684 11.3798 7.19594 11.2285L6.43268 11.6868ZM6.62834 10.9036L7.72648 10.2448L8.18448 11.0083L7.08634 11.6671L6.62834 10.9036ZM7.72648 10.2448L8.08312 10.0309L8.54113 10.7943L8.18449 11.0083L7.72648 10.2448ZM8.08292 10.031C8.03334 10.0608 7.9959 10.1104 7.98137 10.1684L8.84503 10.3846C8.80187 10.557 8.69253 10.7034 8.54132 10.7942L8.08292 10.031ZM7.9813 10.1687C7.967 10.226 7.97622 10.2877 8.00665 10.3383L8.76956 9.87935C8.86103 10.0314 8.88803 10.2124 8.8451 10.3843L7.9813 10.1687ZM8.00644 10.3379C8.06998 10.4438 8.20705 10.4784 8.31356 10.4145L7.85525 9.6512C8.17083 9.4617 8.58053 9.56447 8.76977 9.87971L8.00644 10.3379ZM8.31341 10.4146L6.85862 11.2873L6.40062 10.5238L7.8554 9.6511L8.31341 10.4146ZM6.85873 11.2872C6.58803 11.4497 6.23773 11.3616 6.07565 11.0917L6.83891 10.6334C6.74825 10.4824 6.55197 10.433 6.40052 10.5239L6.85873 11.2872ZM6.07565 11.0917C5.91313 10.8211 6.0014 10.4708 6.27091 10.3087L6.72971 11.0717C6.88045 10.981 6.93001 10.7851 6.83891 10.6334L6.07565 11.0917ZM6.27131 10.3085L8.05677 9.23737L8.51477 10.0008L6.72931 11.0719L6.27131 10.3085ZM8.05657 9.23749C8.00678 9.2674 7.96931 9.31727 7.95487 9.37513L8.81867 9.59077C8.77559 9.76331 8.66639 9.90978 8.51498 10.0007L8.05657 9.23749ZM7.9549 9.37499C7.94049 9.43263 7.94995 9.49415 7.97988 9.5441L8.74363 9.08656C8.83444 9.23814 8.86168 9.41874 8.81863 9.59092L7.9549 9.37499ZM7.98004 9.54436C8.01024 9.5947 8.06029 9.63196 8.11777 9.64631L8.33342 8.78251C8.50559 8.82549 8.65239 8.93449 8.74347 9.0863L7.98004 9.54436ZM8.11833 9.64645C8.17473 9.66045 8.23631 9.65145 8.28684 9.62117L7.82912 8.85753C7.98095 8.76652 8.16115 8.73974 8.33287 8.78237L8.11833 9.64645ZM8.287 9.62107L7.95648 9.81937L7.49844 9.05592L7.82896 8.85762L8.287 9.62107ZM7.72746 9.8828C7.74606 9.8828 7.76566 9.88163 7.78602 9.87893C7.80643 9.87622 7.82698 9.87205 7.84746 9.86632C7.86796 9.86058 7.88753 9.85351 7.90609 9.84538C7.92461 9.83726 7.94139 9.8284 7.95644 9.81938C7.98628 9.80147 8.00832 9.78346 8.02191 9.77147C8.0287 9.76548 8.034 9.76043 8.03719 9.75734C8.0401 9.75452 8.04255 9.75205 8.04214 9.75247C8.04214 9.75247 8.04214 9.75247 8.04214 9.75247C8.04213 9.75247 8.04213 9.75248 8.04212 9.75249C8.04211 9.7525 8.04209 9.75252 8.04206 9.75254C8.04201 9.75259 8.04193 9.75268 8.04183 9.75278C8.04163 9.75297 8.04131 9.7533 8.0409 9.7537C8.04011 9.75448 8.03881 9.75577 8.03718 9.75735C8.03398 9.76045 8.02867 9.76551 8.02188 9.7715C8.00828 9.7835 7.98623 9.80152 7.95637 9.81943C7.94132 9.82846 7.92453 9.83732 7.906 9.84544C7.88744 9.85358 7.86786 9.86065 7.84736 9.86639C7.82686 9.87213 7.80631 9.8763 7.78589 9.87901C7.76552 9.88171 7.74592 9.88288 7.7273 9.88288V8.99257C7.70869 8.99257 7.6891 8.99374 7.66873 8.99644C7.64832 8.99915 7.62778 9.00332 7.6073 9.00905C7.5868 9.01479 7.56723 9.02186 7.54867 9.02999C7.53015 9.03811 7.51336 9.04696 7.49832 9.05599C7.46848 9.0739 7.44644 9.09191 7.43285 9.1039C7.42606 9.10989 7.42076 9.11494 7.41756 9.11803C7.41465 9.12085 7.4122 9.12331 7.41262 9.1229C7.41262 9.1229 7.41262 9.1229 7.41262 9.1229C7.41262 9.12289 7.41263 9.12289 7.41264 9.12288C7.41265 9.12287 7.41267 9.12285 7.41269 9.12282C7.41274 9.12277 7.41282 9.12269 7.41293 9.12259C7.41312 9.1224 7.41345 9.12207 7.41385 9.12167C7.41464 9.12089 7.41595 9.1196 7.41758 9.11802C7.42078 9.11492 7.42608 9.10986 7.43288 9.10387C7.44648 9.09187 7.46853 9.07385 7.49838 9.05594C7.51343 9.04691 7.53022 9.03805 7.54875 9.02993C7.56732 9.02179 7.5869 9.01472 7.6074 9.00898C7.62789 9.00324 7.64844 8.99907 7.66886 8.99636C7.68923 8.99366 7.70884 8.99249 7.72746 8.99249V9.8828ZM7.7273 9.88288H7.72722V8.99257H7.7273V9.88288ZM7.95623 9.81945L6.50153 10.6922L6.04351 9.92871L7.49821 9.05599L7.95623 9.81945ZM6.50199 10.6919C6.23131 10.8547 5.88025 10.7668 5.71819 10.496L6.48216 10.0388C6.39137 9.88711 6.19449 9.83789 6.04305 9.92899L6.50199 10.6919ZM5.71855 10.4966C5.55603 10.226 5.64429 9.87564 5.91381 9.71358L6.3726 10.4766C6.52334 10.3859 6.57291 10.1899 6.48181 10.0382L5.71855 10.4966ZM5.9142 9.71334L7.36899 8.84062L7.82699 9.60409L6.37221 10.4768L5.9142 9.71334ZM7.36878 8.84074C7.31921 8.87052 7.28176 8.92014 7.26723 8.97818L8.13089 9.19438C8.08773 9.36679 7.97839 9.51316 7.82719 9.60397L7.36878 8.84074ZM7.26726 8.97806C7.25128 9.04183 7.2651 9.1092 7.29967 9.15908L8.03144 8.65197C8.14057 8.80945 8.17831 9.00519 8.13086 9.1945L7.26726 8.97806ZM7.29938 9.15867C7.34254 9.22109 7.40195 9.24899 7.44793 9.25726C7.494 9.26555 7.54332 9.25799 7.58705 9.23171L7.12848 8.46858C7.41015 8.29933 7.81788 8.34305 8.03172 8.65238L7.29938 9.15867ZM7.58677 9.23188L5.36249 10.5662L4.90448 9.80278L7.12876 8.46841L7.58677 9.23188ZM5.36188 10.5666C5.14114 10.6986 4.85836 10.6669 4.67243 10.4874L5.29077 9.84685C5.18648 9.74619 5.02846 9.72868 4.9051 9.80241L5.36188 10.5666ZM4.67242 10.4874C4.48632 10.3077 4.44457 10.0257 4.56974 9.80002L5.3483 10.2319C5.41841 10.1055 5.39507 9.94755 5.29078 9.84686L4.67242 10.4874ZM4.5698 9.79992L5.03232 8.96661L5.81076 9.39867L5.34825 10.232L4.5698 9.79992ZM5.03266 8.96598C5.00091 9.02297 5.00314 9.09005 5.03497 9.14309L5.79835 8.68494C5.92914 8.90286 5.93498 9.17571 5.81041 9.39929L5.03266 8.96598ZM5.06138 8.64581L5.0614 8.64578L5.77197 9.18219L5.77195 9.18222L5.06138 8.64581Z" fill="#4CAF4F" mask="url(#path-3-inside-2_212_1413)"/>
</g>
<path id="Vector_3" d="M9.73091 8.98509C9.69617 8.98538 9.66124 8.98977 9.62679 8.9984L9.73091 8.98509ZM9.73091 8.98509C9.73156 8.97553 9.7324 8.96595 9.73343 8.95636L9.73091 8.98509ZM9.32728 9.99421C9.32727 9.99423 9.32725 9.99425 9.32724 9.99427C9.32724 9.99427 9.32724 9.99428 9.32724 9.99428L9.32728 9.99421ZM9.32728 9.99421L9.30278 9.97948L9.3273 9.99418M9.32728 9.99421L9.3273 9.99418M9.3273 9.99418C9.32784 9.99328 9.32837 9.99239 9.32892 9.99151L9.3273 9.99418ZM11.0338 11.3099L11.0339 11.3099L11.0338 11.3099Z" fill="#4CAF4F" stroke="#4CAF4F" stroke-width="0.445155"/>
</g>
</g>
</svg>
